<svg width="151" height="151" viewBox="0 0 151 151" fill="none" xmlns="http://www.w3.org/2000/svg">
<path d="M100.5 44.5C100.5 47.8137 103.186 50.5 106.5 50.5H144.5C147.814 50.5 150.5 53.1863 150.5 56.5V94.5C150.5 97.8137 147.814 100.5 144.5 100.5H106.5C103.186 100.5 100.5 103.186 100.5 106.5V144.5C100.5 147.814 97.8137 150.5 94.5 150.5H56.5C53.1863 150.5 50.5 147.814 50.5 144.5V106.5C50.5 103.186 47.8137 100.5 44.5 100.5H6.5C3.18629 100.5 0.5 97.8137 0.5 94.5V56.5C0.5 53.1863 3.18629 50.5 6.5 50.5H44.5C47.8137 50.5 50.5 47.8137 50.5 44.5V6.5C50.5 3.18629 53.1863 0.5 56.5 0.5H94.5C97.8137 0.5 100.5 3.18629 100.5 6.5V44.5Z" fill="black"/>
<path d="M93.5 51.5C93.5 54.8137 96.1863 57.5 99.5 57.5H137.5C140.814 57.5 143.5 60.1863 143.5 63.5V87.5C143.5 90.8137 140.814 93.5 137.5 93.5H99.5C96.1863 93.5 93.5 96.1863 93.5 99.5V137.5C93.5 140.814 90.8137 143.5 87.5 143.5H63.5C60.1863 143.5 57.5 140.814 57.5 137.5V99.5C57.5 96.1863 54.8137 93.5 51.5 93.5H13.5C10.1863 93.5 7.5 90.8137 7.5 87.5V63.5C7.5 60.1863 10.1863 57.5 13.5 57.5H51.5C54.8137 57.5 57.5 54.8137 57.5 51.5V13.5C57.5 10.1863 60.1863 7.5 63.5 7.5H87.5C90.8137 7.5 93.5 10.1863 93.5 13.5V51.5Z" fill="#524346"/>
</svg>
